<svg xmlns="http://www.w3.org/2000/svg" viewBox="0 0 512 512">
  <defs>
    <linearGradient id="bg" x1="0" y1="0" x2="1" y2="1">
      <stop offset="0%" stop-color="#0f1c17"/>
      <stop offset="100%" stop-color="#07100c"/>
    </linearGradient>
    <linearGradient id="accent" x1="0" y1="0" x2="1" y2="1">
      <stop offset="0%" stop-color="#3ce4a3"/>
      <stop offset="100%" stop-color="#16c47f"/>
    </linearGradient>
  </defs>
  <rect width="512" height="512" rx="128" fill="url(#bg)"/>
  <rect x="84" y="220" width="68" height="72" rx="18" fill="#dfe8e3"/>
  <rect x="360" y="220" width="68" height="72" rx="18" fill="#dfe8e3"/>
  <rect x="150" y="242" width="212" height="28" rx="14" fill="url(#accent)"/>
  <path d="M176 164h160c28 0 52 24 52 52v80c0 28-24 52-52 52H176c-28 0-52-24-52-52v-80c0-28 24-52 52-52zm0 48c-2 0-4 2-4 4v80c0 2 2 4 4 4h160c2 0 4-2 4-4v-80c0-2-2-4-4-4H176z" fill="#1fe091"/>
  <path d="M160 108h192v48H160z" fill="#f7fbf9" opacity=".9"/>
  <path d="M196 356h120v48H196z" fill="#f7fbf9" opacity=".9"/>
</svg>
