<svg xmlns="http://www.w3.org/2000/svg" viewBox="0 0 512 512">
  <defs>
    <linearGradient id="bg" x1="0" y1="0" x2="1" y2="1">
      <stop offset="0%" stop-color="#122019"/>
      <stop offset="55%" stop-color="#0a120f"/>
      <stop offset="100%" stop-color="#050806"/>
    </linearGradient>
    <linearGradient id="glass" x1="0" y1="0" x2="1" y2="1">
      <stop offset="0%" stop-color="#ffffff" stop-opacity=".16"/>
      <stop offset="100%" stop-color="#ffffff" stop-opacity=".04"/>
    </linearGradient>
    <linearGradient id="accent" x1="0" y1="0" x2="1" y2="1">
      <stop offset="0%" stop-color="#7bf0c1"/>
      <stop offset="50%" stop-color="#23cf88"/>
      <stop offset="100%" stop-color="#129864"/>
    </linearGradient>
    <linearGradient id="metal" x1="0" y1="0" x2="0" y2="1">
      <stop offset="0%" stop-color="#f2f7f4"/>
      <stop offset="100%" stop-color="#d4ddd8"/>
    </linearGradient>
  </defs>
  <rect width="512" height="512" rx="128" fill="url(#bg)"/>
  <circle cx="382" cy="124" r="128" fill="#19b874" opacity=".16"/>
  <circle cx="128" cy="392" r="112" fill="#0d1511" opacity=".8"/>
  <rect x="62" y="62" width="388" height="388" rx="118" fill="rgba(255,255,255,0.04)" stroke="rgba(255,255,255,0.08)" stroke-width="2"/>
  <rect x="92" y="92" width="328" height="328" rx="96" fill="url(#glass)" opacity=".18"/>

  <g transform="translate(104 118)">
    <rect x="0" y="44" width="36" height="188" rx="18" fill="url(#metal)"/>
    <rect x="0" y="44" width="138" height="34" rx="17" fill="url(#metal)"/>
    <rect x="0" y="122" width="118" height="30" rx="15" fill="url(#metal)"/>
    <rect x="0" y="202" width="138" height="34" rx="17" fill="url(#metal)"/>

    <rect x="154" y="44" width="154" height="34" rx="17" fill="url(#accent)"/>
    <rect x="214" y="44" width="34" height="192" rx="17" fill="url(#accent)"/>
  </g>

  <g transform="translate(116 246)">
    <rect x="40" y="18" width="200" height="20" rx="10" fill="#e5efea" opacity=".92"/>
    <rect x="0" y="8" width="34" height="40" rx="10" fill="url(#metal)"/>
    <rect x="246" y="8" width="34" height="40" rx="10" fill="url(#metal)"/>
  </g>
</svg>
