<svg xmlns="http://www.w3.org/2000/svg" viewBox="0 0 1600 900" fill="none">
  <defs>
    <linearGradient id="bg" x1="178" y1="86" x2="1440" y2="852" gradientUnits="userSpaceOnUse">
      <stop stop-color="#111F1A"/>
      <stop offset=".58" stop-color="#09110E"/>
      <stop offset="1" stop-color="#040605"/>
    </linearGradient>
    <radialGradient id="glowA" cx="0" cy="0" r="1" gradientUnits="userSpaceOnUse" gradientTransform="translate(1184 184) rotate(90) scale(336 356)">
      <stop stop-color="#FF9A76" stop-opacity=".32"/>
      <stop offset="1" stop-color="#FF9A76" stop-opacity="0"/>
    </radialGradient>
    <radialGradient id="glowB" cx="0" cy="0" r="1" gradientUnits="userSpaceOnUse" gradientTransform="translate(446 264) rotate(90) scale(286 286)">
      <stop stop-color="#8CEEC9" stop-opacity=".24"/>
      <stop offset="1" stop-color="#8CEEC9" stop-opacity="0"/>
    </radialGradient>
  </defs>
  <rect width="1600" height="900" rx="48" fill="url(#bg)"/>
  <rect x="64" y="64" width="1472" height="772" rx="36" stroke="rgba(255,255,255,.08)"/>
  <circle cx="1184" cy="184" r="326" fill="url(#glowA)"/>
  <circle cx="446" cy="264" r="286" fill="url(#glowB)"/>
  <g opacity=".16" stroke="#A5EFD1" stroke-width="2">
    <path d="M118 726C310 678 466 616 682 470"/>
    <path d="M120 194C280 222 432 286 648 406"/>
    <path d="M1244 730C1362 638 1456 542 1518 414"/>
  </g>
  <g transform="translate(0 6)">
    <path d="M798 222C888 222 960 294 960 384V470L1014 554H582L636 470V384C636 294 708 222 798 222Z" fill="#101816"/>
    <path d="M798 258C868 258 922 314 922 384V482L954 528H642L674 482V384C674 314 728 258 798 258Z" fill="#153A2C"/>
    <path d="M744 586C744 614 768 638 798 638C828 638 852 614 852 586" stroke="#E6FFF3" stroke-width="22" stroke-linecap="round"/>
    <path d="M580 418C542 378 542 312 580 272" stroke="#8DEECC" stroke-width="18" stroke-linecap="round"/>
    <path d="M522 474C456 404 456 244 522 174" stroke="#8DEECC" stroke-opacity=".58" stroke-width="14" stroke-linecap="round"/>
    <path d="M1016 418C1054 378 1054 312 1016 272" stroke="#FFB188" stroke-width="18" stroke-linecap="round"/>
    <path d="M1074 474C1140 404 1140 244 1074 174" stroke="#FFB188" stroke-opacity=".58" stroke-width="14" stroke-linecap="round"/>
    <circle cx="798" cy="382" r="34" fill="#FFE1B4"/>
    <circle cx="798" cy="382" r="18" fill="#FF8C68"/>
  </g>
</svg>
