<svg xmlns="http://www.w3.org/2000/svg" viewBox="0 0 1600 900" fill="none">
  <defs>
    <linearGradient id="bg" x1="166" y1="92" x2="1428" y2="860" gradientUnits="userSpaceOnUse">
      <stop stop-color="#0E201E"/>
      <stop offset=".58" stop-color="#071110"/>
      <stop offset="1" stop-color="#040605"/>
    </linearGradient>
    <radialGradient id="glowA" cx="0" cy="0" r="1" gradientUnits="userSpaceOnUse" gradientTransform="translate(1176 218) rotate(90) scale(320 356)">
      <stop stop-color="#2AE1D2" stop-opacity=".56"/>
      <stop offset="1" stop-color="#2AE1D2" stop-opacity="0"/>
    </radialGradient>
    <radialGradient id="glowB" cx="0" cy="0" r="1" gradientUnits="userSpaceOnUse" gradientTransform="translate(384 318) rotate(90) scale(278 296)">
      <stop stop-color="#18C77F" stop-opacity=".3"/>
      <stop offset="1" stop-color="#18C77F" stop-opacity="0"/>
    </radialGradient>
    <linearGradient id="muscle" x1="702" y1="248" x2="900" y2="630" gradientUnits="userSpaceOnUse">
      <stop stop-color="#62E6F2"/>
      <stop offset="1" stop-color="#1697B8"/>
    </linearGradient>
  </defs>
  <rect width="1600" height="900" rx="48" fill="url(#bg)"/>
  <rect x="64" y="64" width="1472" height="772" rx="36" stroke="rgba(255,255,255,.08)"/>
  <circle cx="1178" cy="216" r="322" fill="url(#glowA)"/>
  <circle cx="384" cy="320" r="288" fill="url(#glowB)"/>
  <g opacity=".18" stroke="#9BEBD8" stroke-width="2">
    <path d="M84 190C248 208 418 246 620 338"/>
    <path d="M96 258C282 278 446 320 658 430"/>
    <path d="M1220 726C1338 650 1438 560 1514 428"/>
  </g>
  <g opacity=".22">
    <rect x="1162" y="528" width="248" height="248" rx="36" stroke="#37E5D0" stroke-width="18"/>
    <rect x="1202" y="568" width="168" height="168" rx="28" stroke="#37E5D0" stroke-opacity=".35" stroke-width="10"/>
  </g>
  <g transform="translate(0 6)">
    <circle cx="800" cy="166" r="66" fill="#111917"/>
    <rect x="756" y="220" width="88" height="64" rx="34" fill="#111917"/>
    <path d="M678 278C714 238 756 220 800 220C844 220 886 238 922 278L960 414L944 658L884 746H716L656 658L640 414L678 278Z" fill="#111917"/>
    <path d="M640 300L560 342C506 370 470 424 464 486L454 588C450 634 472 676 512 696L584 730L626 650L604 608L612 452L640 300Z" fill="#111917"/>
    <path d="M960 300L1040 342C1094 370 1130 424 1136 486L1146 588C1150 634 1128 676 1088 696L1016 730L974 650L996 608L988 452L960 300Z" fill="#111917"/>
    <path d="M732 270C750 256 772 248 800 248C828 248 850 256 868 270L894 422L862 620L800 662L738 620L706 422L732 270Z" fill="url(#muscle)"/>
    <path d="M676 290L720 270L740 432L708 560L664 540L646 432L676 290Z" fill="url(#muscle)"/>
    <path d="M924 290L880 270L860 432L892 560L936 540L954 432L924 290Z" fill="url(#muscle)"/>
    <path d="M580 342L646 322L666 446L634 594L592 582L560 498L580 342Z" fill="url(#muscle)"/>
    <path d="M1020 342L954 322L934 446L966 594L1008 582L1040 498L1020 342Z" fill="url(#muscle)"/>
    <path d="M692 272L742 406L706 510L660 428L692 272Z" fill="#72EEF8" fill-opacity=".9"/>
    <path d="M908 272L858 406L894 510L940 428L908 272Z" fill="#72EEF8" fill-opacity=".9"/>
  </g>
</svg>
